HIERARCHY
ROOT SpineBase
{
  OFFSET 0.000000 0.000000 0.000000
  CHANNELS 6 Xposition Yposition Zposition Zrotation Xrotation Yrotation
  JOINT SpineMid
  {
    OFFSET -0.000000 28.572013 0.000000
    CHANNELS 3 Zrotation Xrotation Yrotation
    JOINT SpineShoulder
    {
      OFFSET -0.011293 21.127760 -0.604247
      CHANNELS 3 Zrotation Xrotation Yrotation
      JOINT Neck
      {
        OFFSET -0.023459 7.006227 -0.518667
        CHANNELS 3 Zrotation Xrotation Yrotation
        JOINT Head
        {
          OFFSET 4.257737 12.772239 1.795623
          CHANNELS 3 Zrotation Xrotation Yrotation
          End Site
          {
            OFFSET 0 0 0
          }
        }
      }
      JOINT ShoulderLeft
      {
        OFFSET -12.786405 -3.104064 -9.471545
        CHANNELS 3 Zrotation Xrotation Yrotation
        JOINT ElbowLeft
        {
          OFFSET -6.057035 -22.997637 -0.925793
          CHANNELS 3 Zrotation Xrotation Yrotation
          JOINT WristLeft
          {
            OFFSET 0.365989 -21.559194 -5.025298
            CHANNELS 3 Zrotation Xrotation Yrotation
            JOINT HandLeft
            {
              OFFSET 0.580132 -5.945637 0.071916
              CHANNELS 3 Zrotation Xrotation Yrotation
              JOINT HandTipLeft
              {
                OFFSET 0.965909 -6.642865 -0.028546
                CHANNELS 3 Zrotation Xrotation Yrotation
                End Site
                {
                  OFFSET 0 0 0
                }
              }
              JOINT ThumbLeft
              {
                OFFSET -3.623461 -0.080006 -2.662340
                CHANNELS 3 Zrotation Xrotation Yrotation
                End Site
                {
                  OFFSET 0 0 0
                }
              }
            }
          }
        }
      }
      JOINT ShoulderRight
      {
        OFFSET 14.395548 -4.868493 5.195225
        CHANNELS 3 Zrotation Xrotation Yrotation
        JOINT ElbowRight
        {
          OFFSET 1.646815 -27.433385 1.630949
          CHANNELS 3 Zrotation Xrotation Yrotation
          JOINT WristRight
          {
            OFFSET 0.198640 -27.347960 -7.224332
            CHANNELS 3 Zrotation Xrotation Yrotation
            JOINT HandRight
            {
              OFFSET -1.448593 -1.991644 3.728894
              CHANNELS 3 Zrotation Xrotation Yrotation
              JOINT HandTipRight
              {
                OFFSET 0.115025 -1.592847 0.045210
                CHANNELS 3 Zrotation Xrotation Yrotation
                End Site
                {
                  OFFSET 0 0 0
                }
              }
              JOINT ThumbRight
              {
                OFFSET -1.891841 1.152492 -1.919610
                CHANNELS 3 Zrotation Xrotation Yrotation
                End Site
                {
                  OFFSET 0 0 0
                }
              }
            }
          }
        }
      }
    }
  }
  JOINT HipLeft
  {
    OFFSET -5.712713 0.663254 -5.874081
    CHANNELS 3 Zrotation Xrotation Yrotation
    JOINT KneeLeft
    {
      OFFSET -9.186566 -25.355314 2.609411
      CHANNELS 3 Zrotation Xrotation Yrotation
      JOINT AnkleLeft
      {
        OFFSET -5.553787 -35.137471 7.342373
        CHANNELS 3 Zrotation Xrotation Yrotation
        JOINT FootLeft
        {
          OFFSET 3.345151 -5.943430 -0.360752
          CHANNELS 3 Zrotation Xrotation Yrotation
          End Site
          {
            OFFSET 0 0 0
          }
        }
      }
    }
  }
  JOINT HipRight
  {
    OFFSET 5.292429 1.056464 -0.898962
    CHANNELS 3 Zrotation Xrotation Yrotation
    JOINT KneeRight
    {
      OFFSET -7.620107 -31.840086 6.764882
      CHANNELS 3 Zrotation Xrotation Yrotation
      JOINT AnkleRight
      {
        OFFSET -6.504488 -28.144951 6.609571
        CHANNELS 3 Zrotation Xrotation Yrotation
        JOINT FootRight
        {
          OFFSET 1.990787 -3.581960 -9.529401
          CHANNELS 3 Zrotation Xrotation Yrotation
          End Site
          {
            OFFSET 0 0 0
          }
        }
      }
    }
  }
}
MOTION
Frames: 7
Frame Time: 0.033333
28.666054 68.116709 331.564987 -4.888683 -7.000322 -13.538775 0.083524 -0.280518 13.083769 0.260424 0.171884 -0.229619 -1.036653 12.089657 0.140329 0.000000 0.000000 0.000000 -6.192501 -3.094012 3.524126 -0.290787 1.606695 -0.350699 -4.110262 4.145130 -2.304113 10.157467 9.906945 1.483057 0.000000 0.000000 0.000000 0.000000 0.000000 0.000000 -1.915261 -8.153756 -1.287994 9.491347 0.039962 -0.946599 56.993990 72.947062 -18.659686 -56.549555 -18.301409 -50.184204 0.000000 0.000000 0.000000 0.000000 0.000000 0.000000 41.509768 53.297503 -23.659095 -44.283866 -62.250514 -9.072918 -16.264175 67.258947 48.587718 0.000000 0.000000 0.000000 -8.645873 69.973826 5.029534 47.752796 -75.068030 60.326091 -2.084246 8.875900 -2.082408 0.000000 0.000000 0.000000
28.207831 72.243660 329.999228 -5.511608 -5.937121 -13.122118 -0.010004 -0.278010 12.664404 0.336439 0.076351 -0.258931 -0.132190 10.672383 0.143670 0.000000 0.000000 0.000000 -4.491160 -4.288379 3.374062 -0.824955 1.992532 -0.419606 -1.466779 3.183453 -2.625803 9.686141 10.979086 1.290830 0.000000 0.000000 0.000000 0.000000 0.000000 0.000000 -1.088702 -8.561763 -1.268136 10.024597 -2.237096 -1.153158 63.973018 74.013145 -30.103325 -55.735327 -14.600197 -47.724777 0.000000 0.000000 0.000000 0.000000 0.000000 0.000000 44.580266 51.141895 -23.610041 -42.978771 -59.935588 -6.646522 -22.675114 69.575732 55.122645 0.000000 0.000000 0.000000 -7.229798 56.791202 5.782226 26.688585 -63.234063 36.036289 -5.998059 2.779782 0.775861 0.000000 0.000000 0.000000
27.828208 76.101656 328.432764 -5.984876 -4.847799 -11.622884 -0.157940 -0.297526 11.184704 0.332708 -0.001212 -0.284885 0.643739 9.587222 0.093149 0.000000 0.000000 0.000000 -2.935935 -5.668474 3.303734 -1.310220 2.821458 -0.462935 -0.437588 2.099345 -2.795868 7.383802 10.070545 1.233792 0.000000 0.000000 0.000000 0.000000 0.000000 0.000000 -0.129123 -9.962978 -1.329806 9.581577 -3.373224 -1.076999 59.345558 73.212434 -26.006869 -53.867285 -13.105340 -45.747553 0.000000 0.000000 0.000000 0.000000 0.000000 0.000000 47.905874 47.843855 -23.907248 -45.337637 -58.209595 -7.390914 -26.126042 70.215746 58.331116 0.000000 0.000000 0.000000 -3.187187 41.856282 4.959916 14.481954 -46.771813 20.531549 -7.982528 -3.300880 3.151798 0.000000 0.000000 0.000000
27.548379 79.430349 327.106720 -6.324949 -3.984603 -9.520144 -0.344948 -0.264279 9.107244 0.274172 -0.067164 -0.309263 1.174352 9.324325 -0.075660 0.000000 0.000000 0.000000 -1.756503 -7.111787 3.342281 -1.697202 4.117444 -0.469715 2.417613 1.586817 -2.970284 2.511204 6.272076 0.920408 0.000000 0.000000 0.000000 0.000000 0.000000 0.000000 0.852041 -11.923119 -1.431218 8.317078 -4.220000 -0.731436 54.470852 71.752469 -19.862466 -47.658057 -13.348008 -42.143299 0.000000 0.000000 0.000000 0.000000 0.000000 0.000000 51.705874 44.865638 -25.508535 -49.112799 -57.768407 -9.366083 -27.369495 68.356367 57.709766 0.000000 0.000000 0.000000 0.227394 28.214261 4.343007 9.642713 -30.006965 12.272010 -9.109303 -7.359840 4.583815 0.000000 0.000000 0.000000
27.367323 81.523173 325.834435 -6.535290 -3.057057 -7.957854 -0.471944 -0.266562 7.581210 0.156926 -0.132913 -0.329599 1.473619 8.979826 -0.196585 0.000000 0.000000 0.000000 -1.123077 -8.686566 3.424266 -1.986943 5.345289 -0.441839 6.765177 1.600337 -3.187799 -3.663207 2.681397 0.563104 0.000000 0.000000 0.000000 0.000000 0.000000 0.000000 1.285908 -13.825057 -1.567094 8.087674 -5.295021 -0.648897 58.593672 71.829272 -32.577570 -45.213196 -31.743135 -35.475912 0.000000 0.000000 0.000000 0.000000 0.000000 0.000000 52.432754 40.718754 -23.468841 -51.272375 -54.428563 -10.307076 -28.312770 68.421203 59.295706 0.000000 0.000000 0.000000 2.370711 17.223380 4.509685 7.984658 -14.828403 6.941284 -9.452157 -9.858461 4.617596 0.000000 0.000000 0.000000
27.483799 82.709803 325.617053 -6.421369 -3.098559 -7.011337 -0.509208 -0.255996 6.639328 0.041218 -0.075152 -0.327619 1.970452 9.583909 -0.487463 0.000000 0.000000 0.000000 -0.359965 -8.867940 3.466117 -2.612231 6.144443 -0.330173 7.759720 0.708330 -3.241124 -8.035462 3.418783 1.023079 0.000000 0.000000 0.000000 0.000000 0.000000 0.000000 1.318482 -15.037929 -1.697666 7.452979 -6.778766 -0.408278 57.271946 71.309950 -33.960014 -44.312818 -39.654398 -33.523797 0.000000 0.000000 0.000000 0.000000 0.000000 0.000000 48.951129 36.955389 -19.493999 -46.649079 -48.939751 -7.213155 -29.226215 67.160404 59.425043 0.000000 0.000000 0.000000 3.909557 10.686770 4.924783 6.143786 -3.660863 2.892939 -7.901001 -9.866656 4.313841 0.000000 0.000000 0.000000
28.096017 82.504110 325.419125 -5.836055 -3.017161 -6.450299 -0.408384 -0.276886 6.114206 -0.070876 -0.039292 -0.298990 2.183559 9.947761 -0.841589 0.000000 0.000000 0.000000 -1.282732 -9.189621 3.474369 -1.326396 6.382509 -0.780204 5.755401 0.545586 -2.956136 -7.553454 1.326235 0.525161 0.000000 0.000000 0.000000 0.000000 0.000000 0.000000 0.517929 -15.680334 -1.826458 7.398504 -8.453143 -0.323077 49.253794 69.827382 -29.015543 -34.260337 -44.346000 -25.223592 0.000000 0.000000 0.000000 0.000000 0.000000 0.000000 43.064182 32.770136 -14.432160 -40.931264 -43.561441 -4.224796 -30.301872 66.864958 60.041597 0.000000 0.000000 0.000000 4.632065 6.283288 5.424809 3.697835 3.880079 -0.025220 -4.277985 -6.643794 3.500656 0.000000 0.000000 0.000000
